ffmpeg version N-101030-g129bab5c7e-ge0fd35d867+2 Copyright (c) 2000-2021 the FFmpeg developers
  built with gcc 10.2.0 (Rev6, Built by MSYS2 project)
  configuration:  --pkg-config=pkgconf --cc='ccache gcc' --cxx='ccache g++' --disable-autodetect --enable-amf --enable-bzlib --enable-cuda --enable-cuvid --enable-d3d11va --enable-dxva2 --enable-iconv --enable-lzma --enable-nvenc --enable-zlib --enable-sdl2 --enable-ffnvcodec --enable-nvdec --enable-cuda-llvm --enable-libmp3lame --enable-libopus --enable-libvorbis --enable-libvpx --enable-libx264 --enable-libx265 --enable-libdav1d --enable-libaom --disable-debug --enable-fontconfig --enable-libass --enable-libbluray --enable-libfreetype --enable-libmfx --enable-libmysofa --enable-libopencore-amrnb --enable-libopencore-amrwb --enable-libopenjpeg --enable-libsnappy --enable-libsoxr --enable-libspeex --enable-libtheora --enable-libtwolame --enable-libvidstab --enable-libvo-amrwbenc --enable-libwebp --enable-libxml2 --enable-libzimg --enable-libshine --enable-gpl --enable-avisynth --enable-libxvid --enable-libopenmpt --enable-version3 --enable-libsrt --enable-libgsm --enable-libvmaf --enable-libsvtav1 --enable-librtmp --enable-mbedtls --extra-cflags=-DLIBTWOLAME_STATIC --extra-libs=-lstdc++ --extra-cflags=-DLIBXML_STATIC --extra-libs=-liconv --disable-w32threads
  libavutil      56. 64.100 / 56. 64.100
  libavcodec     58.122.100 / 58.122.100
  libavformat    58. 67.100 / 58. 67.100
  libavdevice    58. 11.103 / 58. 11.103
  libavfilter     7.103.100 /  7.103.100
  libswscale      5.  8.100 /  5.  8.100
  libswresample   3.  8.100 /  3.  8.100
  libpostproc    55.  8.100 / 55.  8.100
Splitting the commandline.
Reading option '-v' ... matched as option 'v' (set logging level) with argument 'debug'.
Reading option '-nostdin' ... matched as option 'stdin' (enable or disable interaction on standard input) with argument 0.
Reading option '-progress' ... matched as option 'progress' (write program-readable progress information) with argument 'C:/Users/Acer/AppData/Local/Temp/KritaFFmpegProgress.QHSMOX'.
Reading option '-r' ... matched as option 'r' (set frame rate (Hz value, fraction or abbreviation)) with argument '24'.
Reading option '-start_number' ... matched as AVOption 'start_number' with argument '0'.
Reading option '-i' ... matched as input url with argument 'D:/Peliprojektit/Projektit/Baltic_Loop/QGIS_kartta/frame%04d.png'.
Reading option '-i' ... matched as input url with argument 'D:/Peliprojektit/Projektit/Baltic_Loop/QGIS_kartta/palette.png'.
Reading option '-lavfi' ... matched as option 'lavfi' (create a complex filtergraph) with argument '[0:v][1:v] paletteuse'.
Reading option '-y' ... matched as option 'y' (overwrite output files) with argument '1'.
Reading option 'D:/Peliprojektit/Projektit/Baltic_Loop/QGIS_kartta\TurunSatama2.gif' ... matched as output url.
Reading option '-vf' ... matched as option 'vf' (set video filters) with argument 'scale=w=1920:h=1080:force_original_aspect_ratio=decrease'.
Trailing option(s) found in the command: may be ignored.
Finished splitting the commandline.
Parsing a group of options: global .
Applying option v (set logging level) with argument debug.
Applying option nostdin (enable or disable interaction on standard input) with argument 0.
Applying option progress (write program-readable progress information) with argument C:/Users/Acer/AppData/Local/Temp/KritaFFmpegProgress.QHSMOX.
[file @ 000002359ad0de00] Setting default whitelist 'file,crypto,data'
Applying option lavfi (create a complex filtergraph) with argument [0:v][1:v] paletteuse.
Applying option y (overwrite output files) with argument 1.
Successfully parsed a group of options.
Parsing a group of options: input url D:/Peliprojektit/Projektit/Baltic_Loop/QGIS_kartta/frame%04d.png.
Applying option r (set frame rate (Hz value, fraction or abbreviation)) with argument 24.
Successfully parsed a group of options.
Opening an input file: D:/Peliprojektit/Projektit/Baltic_Loop/QGIS_kartta/frame%04d.png.
[image2 @ 000002359ad4e280] Opening 'D:/Peliprojektit/Projektit/Baltic_Loop/QGIS_kartta/frame0000.png' for reading
[file @ 000002359ad52d80] Setting default whitelist 'file,crypto,data'
[AVIOContext @ 000002359ad5af40] Statistics: 1006313 bytes read, 0 seeks
[image2 @ 000002359ad4e280] Opening 'D:/Peliprojektit/Projektit/Baltic_Loop/QGIS_kartta/frame0001.png' for reading
[file @ 000002359b205dc0] Setting default whitelist 'file,crypto,data'
[AVIOContext @ 000002359b205f40] Statistics: 1005481 bytes read, 0 seeks
[image2 @ 000002359ad4e280] Opening 'D:/Peliprojektit/Projektit/Baltic_Loop/QGIS_kartta/frame0002.png' for reading
[file @ 000002359b205e80] Setting default whitelist 'file,crypto,data'
[AVIOContext @ 000002359ad52d80] Statistics: 1004514 bytes read, 0 seeks
[image2 @ 000002359ad4e280] Opening 'D:/Peliprojektit/Projektit/Baltic_Loop/QGIS_kartta/frame0003.png' for reading
[file @ 000002359ca15580] Setting default whitelist 'file,crypto,data'
[AVIOContext @ 000002359ca15680] Statistics: 1003717 bytes read, 0 seeks
[image2 @ 000002359ad4e280] Opening 'D:/Peliprojektit/Projektit/Baltic_Loop/QGIS_kartta/frame0004.png' for reading
[file @ 000002359ca15580] Setting default whitelist 'file,crypto,data'
[AVIOContext @ 000002359ad52e80] Statistics: 1002973 bytes read, 0 seeks
[image2 @ 000002359ad4e280] Probe buffer size limit of 5000000 bytes reached
Input #0, image2, from 'D:/Peliprojektit/Projektit/Baltic_Loop/QGIS_kartta/frame%04d.png':
  Duration: 00:00:02.04, start: 0.000000, bitrate: N/A
  Stream #0:0, 5, 1/25: Video: png, 1 reference frame, rgba(pc), 3200x1800 [SAR 19685:19685 DAR 16:9], 0/1, 25 fps, 25 tbr, 25 tbn, 25 tbc
Successfully opened the file.
Parsing a group of options: input url D:/Peliprojektit/Projektit/Baltic_Loop/QGIS_kartta/palette.png.
Successfully parsed a group of options.
Opening an input file: D:/Peliprojektit/Projektit/Baltic_Loop/QGIS_kartta/palette.png.
[NULL @ 000002359ad51a00] Opening 'D:/Peliprojektit/Projektit/Baltic_Loop/QGIS_kartta/palette.png' for reading
[file @ 000002359b206340] Setting default whitelist 'file,crypto,data'
[png_pipe @ 000002359ad51a00] Format png_pipe probed with size=2048 and score=99
[png_pipe @ 000002359ad51a00] Before avformat_find_stream_info() pos: 0 bytes read:991 seeks:0 nb_streams:1
[png_pipe @ 000002359ad51a00] After avformat_find_stream_info() pos: 991 bytes read:991 seeks:0 frames:1
Input #1, png_pipe, from 'D:/Peliprojektit/Projektit/Baltic_Loop/QGIS_kartta/palette.png':
  Duration: N/A, bitrate: N/A
  Stream #1:0, 1, 1/25: Video: png, 1 reference frame, rgba(pc), 16x16 [SAR 1:1 DAR 1:1], 0/1, 25 fps, 25 tbr, 25 tbn, 25 tbc
Successfully opened the file.
Parsing a group of options: output url D:/Peliprojektit/Projektit/Baltic_Loop/QGIS_kartta\TurunSatama2.gif.
Successfully parsed a group of options.
Opening an output file: D:/Peliprojektit/Projektit/Baltic_Loop/QGIS_kartta\TurunSatama2.gif.
[file @ 000002359b2fe8c0] Setting default whitelist 'file,crypto,data'
Successfully opened the file.
detected 8 logical cores
Stream mapping:
  Stream #0:0 (png) -> paletteuse:default
  Stream #1:0 (png) -> paletteuse:palette
  paletteuse -> Stream #0:0 (gif)
cur_dts is invalid st:0 (0) [init:0 i_done:0 finish:0] (this is harmless if it occurs once at the start per stream)
[image2 @ 000002359ad4e280] Opening 'D:/Peliprojektit/Projektit/Baltic_Loop/QGIS_kartta/frame0005.png' for reading
[file @ 000002359cc4a600] Setting default whitelist 'file,crypto,data'
cur_dts is invalid st:0 (0) [init:0 i_done:0 finish:0] (this is harmless if it occurs once at the start per stream)
[AVIOContext @ 000002359cc65e80] Statistics: 1002113 bytes read, 0 seeks
[image2 @ 000002359ad4e280] Opening 'D:/Peliprojektit/Projektit/Baltic_Loop/QGIS_kartta/frame0006.png' for reading
[file @ 000002359cc4a600] Setting default whitelist 'file,crypto,data'
[AVIOContext @ 000002359ad66c00] Statistics: 1001421 bytes read, 0 seeks
[image2 @ 000002359ad4e280] Opening 'D:/Peliprojektit/Projektit/Baltic_Loop/QGIS_kartta/frame0007.png' for reading
[file @ 000002359cc4a600] Setting default whitelist 'file,crypto,data'
[AVIOContext @ 000002359ad66c00] Statistics: 1000666 bytes read, 0 seeks
[image2 @ 000002359ad4e280] Opening 'D:/Peliprojektit/Projektit/Baltic_Loop/QGIS_kartta/frame0008.png' for reading
[file @ 000002359cc4a600] Setting default whitelist 'file,crypto,data'
[AVIOContext @ 000002359ad66c00] Statistics: 999884 bytes read, 0 seeks
[image2 @ 000002359ad4e280] Opening 'D:/Peliprojektit/Projektit/Baltic_Loop/QGIS_kartta/frame0009.png' for reading
[file @ 000002359cc4a600] Setting default whitelist 'file,crypto,data'
[AVIOContext @ 000002359ad66c00] Statistics: 998971 bytes read, 0 seeks
[image2 @ 000002359ad4e280] Opening 'D:/Peliprojektit/Projektit/Baltic_Loop/QGIS_kartta/frame0010.png' for reading
[file @ 000002359cc4a600] Setting default whitelist 'file,crypto,data'
[AVIOContext @ 000002359ad66c00] Statistics: 998071 bytes read, 0 seeks
cur_dts is invalid st:0 (0) [init:0 i_done:0 finish:0] (this is harmless if it occurs once at the start per stream)
[image2 @ 000002359ad4e280] Thread message queue blocking; consider raising the thread_queue_size option (current value: 8)
[image2 @ 000002359ad4e280] Opening 'D:/Peliprojektit/Projektit/Baltic_Loop/QGIS_kartta/frame0011.png' for reading
[file @ 000002359cc4a600] Setting default whitelist 'file,crypto,data'
[AVIOContext @ 000002359d2dce80] Statistics: 997201 bytes read, 0 seeks
cur_dts is invalid st:0 (0) [init:0 i_done:0 finish:0] (this is harmless if it occurs once at the start per stream)
[image2 @ 000002359ad4e280] Opening 'D:/Peliprojektit/Projektit/Baltic_Loop/QGIS_kartta/frame0012.png' for reading
[file @ 000002359cc4a600] Setting default whitelist 'file,crypto,data'
[AVIOContext @ 000002359d2dce80] Statistics: 996548 bytes read, 0 seeks
cur_dts is invalid st:0 (0) [init:0 i_done:0 finish:0] (this is harmless if it occurs once at the start per stream)
[image2 @ 000002359ad4e280] Opening 'D:/Peliprojektit/Projektit/Baltic_Loop/QGIS_kartta/frame0013.png' for reading
[file @ 000002359cc82b00] Setting default whitelist 'file,crypto,data'
[AVIOContext @ 000002359d2dce80] Statistics: 995988 bytes read, 0 seeks
cur_dts is invalid st:0 (0) [init:0 i_done:0 finish:0] (this is harmless if it occurs once at the start per stream)
[image2 @ 000002359ad4e280] Opening 'D:/Peliprojektit/Projektit/Baltic_Loop/QGIS_kartta/frame0014.png' for reading
[file @ 000002359cc83080] Setting default whitelist 'file,crypto,data'
[AVIOContext @ 000002359d2dce80] Statistics: 994995 bytes read, 0 seeks
cur_dts is invalid st:0 (0) [init:0 i_done:0 finish:0] (this is harmless if it occurs once at the start per stream)
[image2 @ 000002359ad4e280] Opening 'D:/Peliprojektit/Projektit/Baltic_Loop/QGIS_kartta/frame0015.png' for reading
[file @ 000002359cc83180] Setting default whitelist 'file,crypto,data'
[AVIOContext @ 000002359d2dce80] Statistics: 994226 bytes read, 0 seeks
cur_dts is invalid st:0 (0) [init:0 i_done:0 finish:0] (this is harmless if it occurs once at the start per stream)
[image2 @ 000002359ad4e280] Opening 'D:/Peliprojektit/Projektit/Baltic_Loop/QGIS_kartta/frame0016.png' for reading
[file @ 000002359cc82ec0] Setting default whitelist 'file,crypto,data'
[AVIOContext @ 000002359d2dce80] Statistics: 993584 bytes read, 0 seeks
cur_dts is invalid st:0 (0) [init:0 i_done:0 finish:0] (this is harmless if it occurs once at the start per stream)
[image2 @ 000002359ad4e280] Opening 'D:/Peliprojektit/Projektit/Baltic_Loop/QGIS_kartta/frame0017.png' for reading
[file @ 000002359cc82900] Setting default whitelist 'file,crypto,data'
[AVIOContext @ 000002359d2dce80] Statistics: 993191 bytes read, 0 seeks
cur_dts is invalid st:0 (0) [init:0 i_done:0 finish:0] (this is harmless if it occurs once at the start per stream)
    Last message repeated 1 times
[graph 0 input from stream 0:0 @ 000002359cc65e00] Setting 'video_size' to value '3200x1800'
[graph 0 input from stream 0:0 @ 000002359cc65e00] Setting 'pix_fmt' to value '26'
[graph 0 input from stream 0:0 @ 000002359cc65e00] Setting 'time_base' to value '1/24'
[graph 0 input from stream 0:0 @ 000002359cc65e00] Setting 'pixel_aspect' to value '19685/19685'
[graph 0 input from stream 0:0 @ 000002359cc65e00] Setting 'frame_rate' to value '24/1'
[graph 0 input from stream 0:0 @ 000002359cc65e00] w:3200 h:1800 pixfmt:rgba tb:1/24 fr:24/1 sar:19685/19685
[graph 0 input from stream 1:0 @ 00000235a1c10dc0] Setting 'video_size' to value '16x16'
[graph 0 input from stream 1:0 @ 00000235a1c10dc0] Setting 'pix_fmt' to value '26'
[graph 0 input from stream 1:0 @ 00000235a1c10dc0] Setting 'time_base' to value '1/25'
[graph 0 input from stream 1:0 @ 00000235a1c10dc0] Setting 'pixel_aspect' to value '1/1'
[graph 0 input from stream 1:0 @ 00000235a1c10dc0] Setting 'frame_rate' to value '25/1'
[graph 0 input from stream 1:0 @ 00000235a1c10dc0] w:16 h:16 pixfmt:rgba tb:1/25 fr:25/1 sar:1/1
[format @ 00000235a1c10ec0] Setting 'pix_fmts' to value 'rgb8|bgr8|rgb4_byte|bgr4_byte|gray|pal8'
[auto_scaler_0 @ 000002359b307100] w:iw h:ih flags:'bilinear' interl:0
[Parsed_paletteuse_0 @ 000002359d2dce80] auto-inserting filter 'auto_scaler_0' between the filter 'graph 0 input from stream 0:0' and the filter 'Parsed_paletteuse_0'
[auto_scaler_1 @ 000002359b306f00] w:iw h:ih flags:'bilinear' interl:0
[Parsed_paletteuse_0 @ 000002359d2dce80] auto-inserting filter 'auto_scaler_1' between the filter 'graph 0 input from stream 1:0' and the filter 'Parsed_paletteuse_0'
[AVFilterGraph @ 000002359ad68b00] query_formats: 5 queried, 2 merged, 2 already done, 0 delayed
[swscaler @ 000002359adac680] Forcing full internal H chroma due to input having non subsampled chroma
[auto_scaler_0 @ 000002359b307100] w:3200 h:1800 fmt:rgba sar:19685/19685 -> w:3200 h:1800 fmt:bgra sar:1/1 flags:0x2
[swscaler @ 00000235a1c17480] Forcing full internal H chroma due to input having non subsampled chroma
[auto_scaler_1 @ 000002359b306f00] w:16 h:16 fmt:rgba sar:1/1 -> w:16 h:16 fmt:bgra sar:1/1 flags:0x2
[Parsed_paletteuse_0 @ 000002359d2dce80] [framesync @ 000002359cc83fc8] Selected 1/600 time base
[Parsed_paletteuse_0 @ 000002359d2dce80] [framesync @ 000002359cc83fc8] Sync level 2
Output #0, gif, to 'D:/Peliprojektit/Projektit/Baltic_Loop/QGIS_kartta\TurunSatama2.gif':
  Metadata:
    encoder         : Lavf58.67.100
  Stream #0:0, 0, 1/100: Video: gif, 1 reference frame, pal8(pc, progressive), 3200x1800 (0x0) [SAR 1:1 DAR 16:9], 0/1, q=2-31, 200 kb/s, 24 fps, 100 tbn (default)
    Metadata:
      encoder         : Lavc58.122.100 gif
Clipping frame in rate conversion by 0.000008
frame=    1 fps=0.0 q=-0.0 size=       0kB time=00:00:00.01 bitrate=   0.0kbits/s speed=0.155x    [image2 @ 000002359ad4e280] Opening 'D:/Peliprojektit/Projektit/Baltic_Loop/QGIS_kartta/frame0018.png' for reading
[file @ 000002359cc82540] Setting default whitelist 'file,crypto,data'
[AVIOContext @ 000002359ce15000] Statistics: 992724 bytes read, 0 seeks
[gif @ 000002359b2fdcc0] 65x43 image at pos (282;933) [area:3200x1800]
[image2 @ 000002359ad4e280] Opening 'D:/Peliprojektit/Projektit/Baltic_Loop/QGIS_kartta/frame0019.png' for reading
[file @ 000002359cc82540] Setting default whitelist 'file,crypto,data'
[AVIOContext @ 000002359ce15680] Statistics: 992109 bytes read, 0 seeks
[gif @ 000002359b2fdcc0] 65x42 image at pos (310;942) [area:3200x1800]
[image2 @ 000002359ad4e280] Opening 'D:/Peliprojektit/Projektit/Baltic_Loop/QGIS_kartta/frame0020.png' for reading
[file @ 000002359cc82f80] Setting default whitelist 'file,crypto,data'
[AVIOContext @ 000002359ce15940] Statistics: 991645 bytes read, 0 seeks
[gif @ 000002359b2fdcc0] 63x42 image at pos (347;951) [area:3200x1800]
[image2 @ 000002359ad4e280] Opening 'D:/Peliprojektit/Projektit/Baltic_Loop/QGIS_kartta/frame0021.png' for reading
[file @ 000002359cc82900] Setting default whitelist 'file,crypto,data'
[AVIOContext @ 000002359ce15540] Statistics: 990279 bytes read, 0 seeks
[gif @ 000002359b2fdcc0] 55x41 image at pos (379;960) [area:3200x1800]
frame=    5 fps=0.0 q=-0.0 size=     256kB time=00:00:00.18 bitrate=11650.8kbits/s speed=0.262x    [image2 @ 000002359ad4e280] Opening 'D:/Peliprojektit/Projektit/Baltic_Loop/QGIS_kartta/frame0022.png' for reading
[file @ 000002359cc82cc0] Setting default whitelist 'file,crypto,data'
[AVIOContext @ 000002359ce15400] Statistics: 989815 bytes read, 0 seeks
[gif @ 000002359b2fdcc0] 55x40 image at pos (410;967) [area:3200x1800]
[image2 @ 000002359ad4e280] Opening 'D:/Peliprojektit/Projektit/Baltic_Loop/QGIS_kartta/frame0023.png' for reading
[file @ 000002359cc83180] Setting default whitelist 'file,crypto,data'
[AVIOContext @ 000002359ce14ec0] Statistics: 989156 bytes read, 0 seeks
[gif @ 000002359b2fdcc0] 66x42 image at pos (443;966) [area:3200x1800]
[image2 @ 000002359ad4e280] Opening 'D:/Peliprojektit/Projektit/Baltic_Loop/QGIS_kartta/frame0024.png' for reading
[file @ 000002359cc82cc0] Setting default whitelist 'file,crypto,data'
[AVIOContext @ 000002359ce15400] Statistics: 988826 bytes read, 0 seeks
[gif @ 000002359b2fdcc0] 77x47 image at pos (482;956) [area:3200x1800]
[image2 @ 000002359ad4e280] Opening 'D:/Peliprojektit/Projektit/Baltic_Loop/QGIS_kartta/frame0025.png' for reading
[file @ 000002359cc82dc0] Setting default whitelist 'file,crypto,data'
[AVIOContext @ 000002359ce14d40] Statistics: 988260 bytes read, 0 seeks
[gif @ 000002359b2fdcc0] 75x46 image at pos (531;947) [area:3200x1800]
frame=    9 fps=7.3 q=-0.0 size=     256kB time=00:00:00.34 bitrate=6168.1kbits/s speed=0.276x    [image2 @ 000002359ad4e280] Opening 'D:/Peliprojektit/Projektit/Baltic_Loop/QGIS_kartta/frame0026.png' for reading
[file @ 000002359cc82a00] Setting default whitelist 'file,crypto,data'
[AVIOContext @ 000002359ce14d40] Statistics: 987572 bytes read, 0 seeks
[gif @ 000002359b2fdcc0] 65x44 image at pos (575;940) [area:3200x1800]
[image2 @ 000002359ad4e280] Opening 'D:/Peliprojektit/Projektit/Baltic_Loop/QGIS_kartta/frame0027.png' for reading
[file @ 000002359cc82440] Setting default whitelist 'file,crypto,data'
[AVIOContext @ 000002359ce157c0] Statistics: 987089 bytes read, 0 seeks
[gif @ 000002359b2fdcc0] 65x44 image at pos (615;932) [area:3200x1800]
[image2 @ 000002359ad4e280] Opening 'D:/Peliprojektit/Projektit/Baltic_Loop/QGIS_kartta/frame0028.png' for reading
[file @ 000002359cc82f80] Setting default whitelist 'file,crypto,data'
[AVIOContext @ 000002359ce157c0] Statistics: 986492 bytes read, 0 seeks
[gif @ 000002359b2fdcc0] 65x44 image at pos (652;924) [area:3200x1800]
[image2 @ 000002359ad4e280] Opening 'D:/Peliprojektit/Projektit/Baltic_Loop/QGIS_kartta/frame0029.png' for reading
[file @ 000002359cc83180] Setting default whitelist 'file,crypto,data'
[AVIOContext @ 000002359ce15000] Statistics: 986086 bytes read, 0 seeks
[gif @ 000002359b2fdcc0] 73x45 image at pos (689;913) [area:3200x1800]
frame=   13 fps=7.3 q=-0.0 size=     256kB time=00:00:00.51 bitrate=4112.1kbits/s speed=0.288x    [image2 @ 000002359ad4e280] Opening 'D:/Peliprojektit/Projektit/Baltic_Loop/QGIS_kartta/frame0030.png' for reading
[file @ 000002359cc83280] Setting default whitelist 'file,crypto,data'
[AVIOContext @ 000002359ce15400] Statistics: 985610 bytes read, 0 seeks
[gif @ 000002359b2fdcc0] 70x47 image at pos (730;904) [area:3200x1800]
[image2 @ 000002359ad4e280] Opening 'D:/Peliprojektit/Projektit/Baltic_Loop/QGIS_kartta/frame0031.png' for reading
[file @ 000002359cc82540] Setting default whitelist 'file,crypto,data'
[AVIOContext @ 000002359ce15540] Statistics: 985418 bytes read, 0 seeks
[gif @ 000002359b2fdcc0] 65x47 image at pos (771;895) [area:3200x1800]
[image2 @ 000002359ad4e280] Opening 'D:/Peliprojektit/Projektit/Baltic_Loop/QGIS_kartta/frame0032.png' for reading
[file @ 000002359cc82f80] Setting default whitelist 'file,crypto,data'
[AVIOContext @ 000002359ce15280] Statistics: 984983 bytes read, 0 seeks
[gif @ 000002359b2fdcc0] 58x45 image at pos (810;885) [area:3200x1800]
[image2 @ 000002359ad4e280] Opening 'D:/Peliprojektit/Projektit/Baltic_Loop/QGIS_kartta/frame0033.png' for reading
[file @ 000002359cc82800] Setting default whitelist 'file,crypto,data'
[AVIOContext @ 000002359ce15400] Statistics: 982981 bytes read, 0 seeks
[gif @ 000002359b2fdcc0] 72x38 image at pos (844;888) [area:3200x1800]
frame=   17 fps=7.4 q=-0.0 size=     256kB time=00:00:00.68 bitrate=3084.0kbits/s speed=0.294x    [image2 @ 000002359ad4e280] Opening 'D:/Peliprojektit/Projektit/Baltic_Loop/QGIS_kartta/frame0034.png' for reading
[file @ 000002359cc82b00] Setting default whitelist 'file,crypto,data'
[AVIOContext @ 000002359ce15000] Statistics: 981383 bytes read, 0 seeks
[gif @ 000002359b2fdcc0] 73x38 image at pos (883;892) [area:3200x1800]
[image2 @ 000002359ad4e280] Opening 'D:/Peliprojektit/Projektit/Baltic_Loop/QGIS_kartta/frame0035.png' for reading
[file @ 000002359cc82a00] Setting default whitelist 'file,crypto,data'
[AVIOContext @ 000002359ce15940] Statistics: 980487 bytes read, 0 seeks
[gif @ 000002359b2fdcc0] 61x37 image at pos (920;896) [area:3200x1800]
[image2 @ 000002359ad4e280] Opening 'D:/Peliprojektit/Projektit/Baltic_Loop/QGIS_kartta/frame0036.png' for reading
[file @ 000002359cc82ec0] Setting default whitelist 'file,crypto,data'
[AVIOContext @ 000002359ce15000] Statistics: 978812 bytes read, 0 seeks
[gif @ 000002359b2fdcc0] 74x40 image at pos (950;899) [area:3200x1800]
[image2 @ 000002359ad4e280] Opening 'D:/Peliprojektit/Projektit/Baltic_Loop/QGIS_kartta/frame0037.png' for reading
[file @ 000002359cc82800] Setting default whitelist 'file,crypto,data'
[AVIOContext @ 000002359ce14c00] Statistics: 977059 bytes read, 0 seeks
[gif @ 000002359b2fdcc0] 71x38 image at pos (992;905) [area:3200x1800]
frame=   21 fps=7.4 q=-0.0 size=     256kB time=00:00:00.84 bitrate=2496.6kbits/s speed=0.296x    [image2 @ 000002359ad4e280] Opening 'D:/Peliprojektit/Projektit/Baltic_Loop/QGIS_kartta/frame0038.png' for reading
[file @ 000002359cc82640] Setting default whitelist 'file,crypto,data'
[AVIOContext @ 000002359ce15940] Statistics: 974518 bytes read, 0 seeks
[gif @ 000002359b2fdcc0] 121x46 image at pos (1028;909) [area:3200x1800]
[image2 @ 000002359ad4e280] Opening 'D:/Peliprojektit/Projektit/Baltic_Loop/QGIS_kartta/frame0039.png' for reading
[file @ 000002359cc83180] Setting default whitelist 'file,crypto,data'
[AVIOContext @ 000002359ce15680] Statistics: 971658 bytes read, 0 seeks
[gif @ 000002359b2fdcc0] 88x37 image at pos (1102;921) [area:3200x1800]
[image2 @ 000002359ad4e280] Opening 'D:/Peliprojektit/Projektit/Baltic_Loop/QGIS_kartta/frame0040.png' for reading
[file @ 000002359cc82740] Setting default whitelist 'file,crypto,data'
[AVIOContext @ 000002359ce14c00] Statistics: 968893 bytes read, 0 seeks
[gif @ 000002359b2fdcc0] 75x38 image at pos (1150;925) [area:3200x1800]
[image2 @ 000002359ad4e280] Opening 'D:/Peliprojektit/Projektit/Baltic_Loop/QGIS_kartta/frame0041.png' for reading
[file @ 000002359cc83180] Setting default whitelist 'file,crypto,data'
[AVIOContext @ 000002359ce15540] Statistics: 966706 bytes read, 0 seeks
[gif @ 000002359b2fdcc0] 76x42 image at pos (1193;929) [area:3200x1800]
frame=   25 fps=7.4 q=-0.0 size=     256kB time=00:00:01.01 bitrate=2076.4kbits/s speed= 0.3x    [image2 @ 000002359ad4e280] Opening 'D:/Peliprojektit/Projektit/Baltic_Loop/QGIS_kartta/frame0042.png' for reading
[file @ 000002359cc82b00] Setting default whitelist 'file,crypto,data'
[AVIOContext @ 000002359ce15000] Statistics: 964834 bytes read, 0 seeks
[gif @ 000002359b2fdcc0] 90x41 image at pos (1235;936) [area:3200x1800]
[image2 @ 000002359ad4e280] Opening 'D:/Peliprojektit/Projektit/Baltic_Loop/QGIS_kartta/frame0043.png' for reading
[file @ 000002359cc82a00] Setting default whitelist 'file,crypto,data'
[AVIOContext @ 000002359ce15140] Statistics: 962660 bytes read, 0 seeks
[gif @ 000002359b2fdcc0] 106x37 image at pos (1302;944) [area:3200x1800]
[image2 @ 000002359ad4e280] Opening 'D:/Peliprojektit/Projektit/Baltic_Loop/QGIS_kartta/frame0044.png' for reading
[file @ 000002359cc82a00] Setting default whitelist 'file,crypto,data'
[AVIOContext @ 000002359ce157c0] Statistics: 960018 bytes read, 0 seeks
[gif @ 000002359b2fdcc0] 114x35 image at pos (1383;946) [area:3200x1800]
[image2 @ 000002359ad4e280] Opening 'D:/Peliprojektit/Projektit/Baltic_Loop/QGIS_kartta/frame0045.png' for reading
[file @ 000002359cc83280] Setting default whitelist 'file,crypto,data'
[AVIOContext @ 000002359ce157c0] Statistics: 957116 bytes read, 0 seeks
[gif @ 000002359b2fdcc0] 103x35 image at pos (1463;947) [area:3200x1800]
frame=   29 fps=7.4 q=-0.0 size=     256kB time=00:00:01.18 bitrate=1777.2kbits/s speed=0.303x    [image2 @ 000002359ad4e280] Opening 'D:/Peliprojektit/Projektit/Baltic_Loop/QGIS_kartta/frame0046.png' for reading
[file @ 000002359cc82ec0] Setting default whitelist 'file,crypto,data'
[AVIOContext @ 000002359ce15400] Statistics: 954165 bytes read, 0 seeks
[gif @ 000002359b2fdcc0] 100x36 image at pos (1541;947) [area:3200x1800]
[image2 @ 000002359ad4e280] Opening 'D:/Peliprojektit/Projektit/Baltic_Loop/QGIS_kartta/frame0047.png' for reading
[file @ 000002359cc82a00] Setting default whitelist 'file,crypto,data'
[AVIOContext @ 000002359ce15000] Statistics: 951411 bytes read, 0 seeks
[gif @ 000002359b2fdcc0] 109x37 image at pos (1619;947) [area:3200x1800]
[image2 @ 000002359ad4e280] Opening 'D:/Peliprojektit/Projektit/Baltic_Loop/QGIS_kartta/frame0048.png' for reading
[file @ 000002359cc82a00] Setting default whitelist 'file,crypto,data'
[AVIOContext @ 000002359ce14ec0] Statistics: 948690 bytes read, 0 seeks
[gif @ 000002359b2fdcc0] 88x37 image at pos (1698;949) [area:3200x1800]
[image2 @ 000002359ad4e280] Opening 'D:/Peliprojektit/Projektit/Baltic_Loop/QGIS_kartta/frame0049.png' for reading
[file @ 000002359cc82cc0] Setting default whitelist 'file,crypto,data'
[AVIOContext @ 000002359ce15280] Statistics: 945328 bytes read, 0 seeks
[gif @ 000002359b2fdcc0] 89x38 image at pos (1761;949) [area:3200x1800]
frame=   33 fps=7.5 q=-0.0 size=     256kB time=00:00:01.34 bitrate=1565.0kbits/s speed=0.303x    [image2 @ 000002359ad4e280] Opening 'D:/Peliprojektit/Projektit/Baltic_Loop/QGIS_kartta/frame0050.png' for reading
[file @ 000002359cc82640] Setting default whitelist 'file,crypto,data'
[AVIOContext @ 000002359ce15400] Statistics: 942852 bytes read, 0 seeks
[gif @ 000002359b2fdcc0] 97x55 image at pos (1825;931) [area:3200x1800]
[gif @ 000002359b2fdcc0] 100x59 image at pos (1894;908) [area:3200x1800]
[gif @ 000002359b2fdcc0] 103x62 image at pos (1962;885) [area:3200x1800]
[gif @ 000002359b2fdcc0] 104x61 image at pos (2040;862) [area:3200x1800]
frame=   37 fps=7.5 q=-0.0 size=     256kB time=00:00:01.51 bitrate=1388.8kbits/s speed=0.305x    [gif @ 000002359b2fdcc0] 111x64 image at pos (2116;838) [area:3200x1800]
[gif @ 000002359b2fdcc0] 112x62 image at pos (2206;812) [area:3200x1800]
[gif @ 000002359b2fdcc0] 119x63 image at pos (2293;785) [area:3200x1800]
[gif @ 000002359b2fdcc0] 117x62 image at pos (2381;758) [area:3200x1800]
frame=   41 fps=7.5 q=-0.0 size=     256kB time=00:00:01.68 bitrate=1248.3kbits/s speed=0.307x    [gif @ 000002359b2fdcc0] 103x59 image at pos (2468;736) [area:3200x1800]
[gif @ 000002359b2fdcc0] 118x52 image at pos (2538;722) [area:3200x1800]
[gif @ 000002359b2fdcc0] 101x49 image at pos (2622;707) [area:3200x1800]
[gif @ 000002359b2fdcc0] 104x60 image at pos (2694;683) [area:3200x1800]
frame=   45 fps=7.5 q=-0.0 size=     256kB time=00:00:01.84 bitrate=1139.8kbits/s speed=0.306x    [gif @ 000002359b2fdcc0] 113x65 image at pos (2775;653) [area:3200x1800]
[gif @ 000002359b2fdcc0] 122x68 image at pos (2851;624) [area:3200x1800]
[gif @ 000002359b2fdcc0] 104x62 image at pos (2940;600) [area:3200x1800]
[gif @ 000002359b2fdcc0] 87x72 image at pos (3013;565) [area:3200x1800]
frame=   49 fps=7.5 q=-0.0 size=     256kB time=00:00:02.01 bitrate=1043.4kbits/s speed=0.307x    [gif @ 000002359b2fdcc0] 101x84 image at pos (3068;523) [area:3200x1800]
[gif @ 000002359b2fdcc0] 69x85 image at pos (3131;482) [area:3200x1800]
[Parsed_paletteuse_0 @ 000002359d2dce80] [framesync @ 000002359cc83fc8] Sync level 0
[out_0_0 @ 000002359ad66dc0] EOF on sink link out_0_0:default.
No more output streams to write to, finishing.
frame=   51 fps=7.4 q=-0.0 Lsize=     336kB time=00:00:02.09 bitrate=1316.0kbits/s speed=0.301x    
[AVIOContext @ 000002359ad4dfc0] Statistics: 0 seeks, 14 writeouts
video:336kB audio:0kB subtitle:0kB other streams:0kB global headers:0kB muxing overhead: 0.005818%
Input file #0 (D:/Peliprojektit/Projektit/Baltic_Loop/QGIS_kartta/frame%04d.png):
  Input stream #0:0 (video): 51 packets read (50185492 bytes); 51 frames decoded; 
  Total: 51 packets (50185492 bytes) demuxed
Input file #1 (D:/Peliprojektit/Projektit/Baltic_Loop/QGIS_kartta/palette.png):
  Input stream #1:0 (video): 1 packets read (991 bytes); 1 frames decoded; 
  Total: 1 packets (991 bytes) demuxed
Output file #0 (D:/Peliprojektit/Projektit/Baltic_Loop/QGIS_kartta\TurunSatama2.gif):
  Output stream #0:0 (video): 51 frames encoded; 51 packets muxed (343783 bytes); 
  Total: 51 packets (343783 bytes) muxed
52 frames successfully decoded, 0 decoding errors
[AVIOContext @ 000002359b2fe9c0] Statistics: 0 seeks, 2 writeouts
[AVIOContext @ 000002359b206440] Statistics: 991 bytes read, 0 seeks
